<svg xmlns="http://www.w3.org/2000/svg" width="1923" height="158" viewBox="0 0 1923 158" fill="none"><g><path d="M-3 152.306V-321H1920L1923 96.3316C1916.5 72.8316 1896.33 75.6326 1894.17 66.8865C1899.78 79.4225 1859.87 84.3786 1863.61 66.8865C1861.89 49.8318 1831.45 61.7847 1833.17 69.6561C1827.71 68.49 1810.02 68.8889 1807 76.0315C1809.45 60.1428 1776.3 84.6702 1779.04 96.3316C1774.15 90.7924 1758.49 86.6154 1756.18 90.2596C1759.92 73.3506 1711.39 71.283 1711.39 84.8393C1711.39 80.3205 1681.67 111.125 1681.67 105.148C1681.67 105.148 1653.67 100.103 1653.67 91.6484C1653.67 76.3429 1616.67 71.5127 1616.67 76.0315C1616.67 77.6349 1584.56 69.8019 1584.56 74.1749C1584.56 83.3583 1550.05 84.5697 1563.5 61C1563.5 50.7963 1538.5 73.2444 1538.5 61C1528.83 67.8775 1509 62.895 1509 61C1509 66.5392 1494.35 77.6882 1482 61C1482 67.1222 1462.67 73.8123 1462.67 84.1618C1462.67 70.0224 1429.22 80.9549 1429.22 84.1618C1429.22 99.4674 1392.17 103.911 1392.17 99.6841C1392.17 84.0871 1360.17 99.5199 1360.17 91.6484C1360.17 92.6688 1340.9 92.3958 1340.9 99.6841C1340.9 98.9553 1309.53 123.458 1310.98 101.725C1312.67 126.148 1281.17 126.288 1281.17 112.148C1281.17 103.694 1258.91 121.695 1258.91 132.773C1258.91 128.4 1243.17 109.013 1227.7 128.255C1227.7 120.383 1198.67 114.698 1195.2 132.773C1195.2 119.8 1178.36 104.932 1178.36 109.013C1178.36 109.742 1149.45 117.905 1149.45 106.39C1149.45 110.763 1125.86 97.7893 1125.86 86.1279C1125.86 97.0605 1092.17 94.5823 1092.17 101.725C1092.17 86.8566 1075.37 135.397 1075.37 114.698C1075.37 115.427 1045.16 104.786 1045.16 105.369C1045.16 97.935 1022.02 113.532 1022.02 105.369C1022.02 97.935 989.498 104.057 989.498 107.118C989.498 105.077 983.175 144.351 983.175 130.648C983.175 111.553 936.708 149.537 936.708 135.106C936.708 140.062 914.675 133.21 914.675 142.977C914.675 139.77 879.891 122.715 879.891 127.38C879.891 119.217 849.397 154.201 849.397 142.977C849.397 151.286 818.328 152.452 818.328 150.265C818.328 158.72 795.675 133.502 784.654 156.657C784.654 157.678 754.031 151.14 754.031 135.251C754.031 123.736 708.175 152.347 708.175 141.415C708.175 136.313 675.667 112.407 675.667 128.879C675.667 104.973 661.11 155.367 661.11 161.781C661.11 138.648 630.76 156.971 630.76 150.12C630.76 133.502 600.841 169.944 600.841 143.706C600.841 133.356 572.361 160.323 572.361 158.72C567.175 141.415 542.442 156.533 542.442 149.828C542.442 148.953 513.243 138.167 513.243 153.035C513.243 145.163 478.675 140.061 478.675 150.265C478.675 150.702 454.7 155.222 454.7 158.283C454.7 148.662 425.5 154.493 425.5 146.33C416.175 137.648 396.301 146.767 396.301 148.225C396.301 158.428 366.957 157.845 366.957 149.099C366.957 157.262 356.175 138.604 338.189 143.56C338.189 138.75 307.982 161.052 307.982 149.245C307.982 146.476 279.214 159.886 279.214 142.54C279.214 141.228 249.152 138.604 249.152 143.56C249.152 142.248 220.096 143.706 220.096 138.604C220.096 169.944 189.89 137.292 189.89 144.435C189.89 138.458 167.502 142.54 167.502 136.331C167.502 116.653 143.552 133.21 140.675 142.54C140.243 159.886 91.5032 121.841 100.134 120.383C90.6092 134.299 78.1258 119.071 69.7831 128.838C76.9751 127.963 42.7411 146.184 41.0151 142.394C35.8368 148.954 11.0964 140.207 10.521 146.33C13.1101 148.662 5.48657 150.994 -3 152.306Z" fill="#FFF8F6"></path></g></svg>
