<svg xmlns="http://www.w3.org/2000/svg" width="1919" height="212" viewBox="0 0 1919 212" fill="none"><g mask="url(#mask0_76_34)"><path d="M1918.02 490.149L1918.02 84.7898C1913.2 87.298 1908.82 90.3762 1907.53 94.0245C1890.82 94.1955 1863.45 90.6612 1875 98.9839C1872.36 104.171 1866 98.9839 1858.73 101.777C1853.23 97.9008 1847.15 112.95 1843.5 114.489C1838.4 103.943 1817.84 106.737 1814.76 111.126C1814.98 107.82 1792.94 96.0766 1789.8 98.9839C1800.51 104.285 1802 116.028 1779 120.589C1784.1 130.678 1754.18 110.784 1743.07 112.323C1741.17 101.834 1727.37 134.753 1723.5 127C1716.71 134.411 1692.14 134.156 1693.43 123.952C1688.5 121.501 1673.86 114.432 1668.42 120.589C1674.08 115.743 1648.5 103.088 1648.5 111.81C1648.5 120.076 1618.66 125.548 1618.66 104.57C1618.66 124.579 1593 126.829 1593 127C1593 128.767 1568.57 114.945 1568.57 111.81C1568.57 99.4969 1547 94.3095 1547 103.886C1547 112.893 1519.55 100.295 1519.55 101.321C1519.55 115.8 1493.5 123.496 1493.5 114.489C1493.5 108.789 1468 87.925 1468 105.083C1468 108.447 1445.57 98.1858 1445.57 90.5472C1445.57 87.0129 1424.37 62.501 1424.37 71.3937C1424.37 71.2797 1398.23 64.7242 1398.23 69.3415C1398.23 59.7648 1373.15 56.0594 1373.15 58.9667C1356.5 48.5 1356.5 87.7802 1356.5 85.5C1356.5 83.4478 1322.9 80.4004 1322.9 79.2604C1316.5 101.321 1295.86 78.2912 1295.86 75.441C1295.86 93.5114 1283.91 110.613 1283.91 103.886C1283.91 89.0081 1261.42 108.39 1261.42 112.551C1261.42 106.394 1236.91 115.059 1236.91 110.328C1236.91 95.6776 1212.85 115.458 1212.85 105.425C1212.85 97.3877 1188.5 105.254 1188.5 109.929C1188.5 108.675 1164.83 122.641 1164.83 118.422C1164.83 126.232 1125 115.857 1125 118.422C1125 119.22 1117.04 133.187 1117.04 138.26C1117.04 139.343 1085 106.793 1085 120.189C1085 129.994 1070 136.208 1070 142.364C1070 147.837 1040.65 116.256 1040.65 139.514C1040.65 137.063 1017.65 118.422 1017.65 122.014C1017.65 118.479 991.794 112.209 991.794 106.109C991.794 110.841 961.449 97.5017 961.449 107.307C961.449 89.5781 952.5 122.014 933.067 100.01C933.067 94.0245 906.5 110.328 906.5 114.546C906.5 106.907 881.8 102.746 881.8 103.031C881.8 92.3143 861 106.394 861 105.425C861 117.852 831.992 103.943 831.992 108.96C831.992 105.767 805 84.5617 805 93.8534C805 91.0032 788 93.8534 779.715 98.8128C779.715 115.572 755.316 106.223 755.316 107.534C755.316 109.416 732.992 128.227 732.992 126.745C732.992 129.994 707.358 118.65 707.358 127.942C707.358 128.056 691.5 143.048 673 120.189C673 122.584 657.269 145.329 657.269 138.032C657.269 132.902 632.309 137.747 632.309 145.1C632.309 152.283 605.946 145.613 605.946 146.982C605.946 157.128 579.079 137.69 579.079 140.768C579.079 143.504 552.66 138.602 552.66 132.959C552.66 136.151 526.971 138.032 526.971 142.364C526.971 144.416 504 141.68 504 143.048C504 145.727 474.862 124.18 474.862 145.556C474.862 143.048 447 148.521 447 135.695C447 127.315 422.642 144.872 422.642 146.412C422.642 165.964 397.233 140.939 397.233 132.388C397.233 145.727 370 136.037 370 146.982C370 144.188 345.517 116.199 345.517 127.087C345.517 134.84 320.725 133.129 320.725 131.419C320.725 137.006 295.54 142.649 295.54 143.048C295.54 169.897 271.029 149.718 271.029 142.592C271.029 134.612 247.751 116.427 247.751 120.189C247.751 103.544 222.791 116.313 222.791 128.341C222.791 114.603 197.887 142.079 197.887 135.41C197.887 129.652 173.655 123.496 173.655 129.652C173.655 122.755 146.956 128.284 149.144 129.196C150.77 134.441 120.537 128.911 122.388 126.688C132.653 125.149 100.513 116.028 96.5305 119.106C90.641 106.622 65.2321 108.275 70.112 116.712C65.9613 123.61 39.6547 107.078 43.9176 103.544C37.8038 102.575 23.6128 100.295 16.3771 106.508C15.3675 104.57 7.06612 108.503 -0.00131032 112.95L-0.00134277 490.263L1918.02 490.263L1918.02 490.149Z" fill="#ffffff"></path></g></svg>
